<?xml version="1.0" encoding="UTF-8"?>
<svg xmlns="http://www.w3.org/2000/svg" xmlns:xlink="http://www.w3.org/1999/xlink" viewBox="0 0 890.63 593.75">
  <defs>
    <style>
      .cls-1 {
        isolation: isolate;
      }

      .cls-2 {
        fill: url(#linear-gradient-2);
      }

      .cls-2, .cls-3, .cls-4 {
        opacity: .2;
      }

      .cls-2, .cls-4 {
        mix-blend-mode: multiply;
      }

      .cls-5, .cls-6 {
        fill: #ccfdff;
      }

      .cls-5, .cls-6, .cls-7, .cls-3 {
        mix-blend-mode: overlay;
      }

      .cls-8 {
        opacity: .4;
      }

      .cls-9 {
        clip-path: url(#clippath);
      }

      .cls-10 {
        fill: url(#linear-gradient-3);
        mix-blend-mode: soft-light;
      }

      .cls-10, .cls-6, .cls-7 {
        opacity: .5;
      }

      .cls-11, .cls-12 {
        fill: none;
      }

      .cls-12 {
        stroke: #d8d8d8;
        stroke-miterlimit: 10;
      }

      .cls-7 {
        fill: #bde1e5;
      }

      .cls-3 {
        fill: #59617f;
      }

      .cls-4 {
        fill: url(#linear-gradient);
      }
    </style>
    <clipPath id="clippath">
      <rect class="cls-11" y="3.38" width="892.14" height="587.55"/>
    </clipPath>
    <linearGradient id="linear-gradient" x1="-252.39" y1="714.57" x2="354.95" y2="714.57" gradientUnits="userSpaceOnUse">
      <stop offset="0" stop-color="#d1d5de"/>
      <stop offset="1" stop-color="#dbdbdb"/>
    </linearGradient>
    <linearGradient id="linear-gradient-2" x1="466.26" y1="-158.12" x2="1073.6" y2="-158.12" xlink:href="#linear-gradient"/>
    <linearGradient id="linear-gradient-3" x1="191.91" y1="561.36" x2="769.93" y2="561.36" xlink:href="#linear-gradient"/>
  </defs>
  <g class="cls-1">
    <g id="OBJECTS">
      <g class="cls-8">
        <g class="cls-9">
          <g>
            <path class="cls-4" d="M295.76,784.13c-8.96-25.72-6.5-53.95-1.76-80.77,4.74-26.82,11.66-2.53,11.3-29.76-.6-44.47-21.91-88.3-56.72-115.99-34.81-27.69-82.45-38.61-125.78-28.53-27.4,6.37-53.15,20.62-81.25,21.78-28.86,1.19-56.28-11.56-84.68-16.78-67.44-12.38-139.73-29.44-177.47,27.81-37.74,57.25-41.32,134.05-13.7,196.81,27.62,62.76,84.24,110.9,149.09,133.2,64.85,22.29,137.01,19.71,202.07-1.98,31.9-10.63,62.27-25.68,94.62-34.85,32.35-9.17,68.08-12.04,98.82,1.57l44.66-23.58c-27.22-.73-50.22-23.21-59.19-48.93Z"/>
            <path class="cls-2" d="M1014.41-10c-8.96-25.72-6.5-53.95-1.76-80.77,4.74-26.82,11.66-53.53,11.3-80.76-.6-44.47-21.91-147.3-56.72-174.99-34.81-27.69-82.45-38.61-125.78-28.53-27.4,6.37-53.15,20.62-81.25,21.78-28.86,1.19-56.28-11.56-84.68-16.78-67.44-12.38-139.73,21.56-177.47,78.81-37.74,57.25-41.32,134.05-13.7,196.81,27.62,62.76,84.24,110.9,149.09,133.2,64.85,22.29,137.01,19.71,202.07-1.98,31.9-10.63,62.27-25.68,94.62-34.85,32.35-9.17,68.08,46.96,98.82,60.57l44.66-23.58c-27.22-.73-50.22-23.21-59.19-48.93Z"/>
            <path class="cls-3" d="M892.14,343.39v302.38H456.99c1.46-12.75,4.14-25.36,8.16-37.64,13.57-41.55,43.01-77.94,80.34-100.21,19.72-11.78,41.66-19.62,64.61-22.17,29.89-3.34,63.59,.69,86.63-18.64,13.86-11.63,20.59-29.39,29.23-45.3,24.6-45.25,70.93-79.89,122.31-83.53,14.74-1.05,29.68,.8,43.87,5.1Z"/>
            <path class="cls-10" d="M769.93,645.77H191.91c1.74-16.3,5.84-32.4,11.8-47.65,13.94-35.59,41.82-69.52,79.66-74.92,16.32-2.33,32.36,.83,47.88,6.59,22.24,8.24,47.16,1.52,62.43-16.64,10.78-12.81,24.64-23.06,40.21-29.23,28.83-11.43,62.93-8.64,89.51,7.32,7.89,4.73,15.12,10.53,22.1,16.69,19.87,17.51,37.72,37.99,62.74,45.61,26.01,7.9,54.44-.04,81.1,5.29,39.08,7.82,67.79,43.47,79.14,81.66,.52,1.75,1.01,3.51,1.46,5.28Z"/>
            <circle class="cls-7" cx="219.86" cy="11.64" r="40.54" transform="translate(160.01 223.52) rotate(-77.26)"/>
            <circle class="cls-6" cx="710.78" cy="359.1" r="13.92" transform="translate(-59.49 561.22) rotate(-41.51)"/>
            <path class="cls-5" d="M122.97,433.27c0,3.84-3.12,6.96-6.96,6.96s-6.96-3.12-6.96-6.96,3.12-6.96,6.96-6.96,6.96,3.12,6.96,6.96Z"/>
            <path class="cls-6" d="M783.85,305.07c0,3.84-3.12,6.96-6.96,6.96s-6.96-3.12-6.96-6.96,3.12-6.96,6.96-6.96,6.96,3.12,6.96,6.96Z"/>
            <g>
              <path class="cls-12" d="M105.51-73.46c49.44-.06,98.45,22.71,130.29,60.53,27.61,32.8,41.83,74.7,65.52,110.44,23.69,35.74,63.69,67.09,105.84,59.24,28.94-5.39,51.95-28.47,65.56-54.58,13.61-26.1,19.5-55.4,26.79-83.92,7.29-28.52,16.54-57.48,35.4-80.09,23.91-28.65,62.72-44.12,99.79-39.76"/>
              <path class="cls-12" d="M122.07-75.27c46.35-.06,92.29,21.29,122.14,56.75,25.88,30.75,39.22,70.02,61.42,103.53,22.2,33.5,59.7,62.89,99.22,55.53,27.13-5.05,48.7-26.69,61.45-51.16,12.76-24.47,18.28-51.93,25.11-78.67,6.83-26.74,15.51-53.88,33.19-75.07,22.41-26.86,58.8-41.36,93.54-37.27"/>
              <path class="cls-12" d="M138.63-77.08c43.25-.05,86.13,19.87,113.98,52.96,24.16,28.7,36.6,65.35,57.32,96.62,20.72,31.27,55.72,58.69,92.59,51.82,25.32-4.72,45.44-24.91,57.35-47.75,11.91-22.84,17.06-48.46,23.44-73.42,6.38-24.95,14.47-50.29,30.97-70.06,20.92-25.07,54.87-38.6,87.3-34.78"/>
              <path class="cls-12" d="M155.19-78.88c40.16-.05,79.97,18.45,105.83,49.17,22.43,26.64,33.98,60.67,53.22,89.7s51.73,54.49,85.97,48.11c23.51-4.38,42.19-23.13,53.25-44.33,11.05-21.2,15.84-45,21.76-68.17,5.92-23.17,13.44-46.69,28.76-65.05,19.42-23.27,50.95-35.84,81.05-32.29"/>
              <path class="cls-12" d="M171.75-80.69c37.06-.04,73.8,17.02,97.67,45.38,20.7,24.59,31.36,56,49.12,82.79,17.76,26.79,47.74,50.29,79.34,44.41,21.7-4.04,38.94-21.34,49.14-40.91,10.2-19.57,14.62-41.53,20.08-62.91,5.46-21.38,12.4-43.09,26.54-60.04,17.92-21.48,47.02-33.08,74.81-29.81"/>
            </g>
            <g>
              <path class="cls-12" d="M364.01,732.04c-8.18-29.86-14.15-62.39-2.71-91.16,14.98-37.69,56.56-58.8,96.83-63.63,40.27-4.84,80.82,3.16,121.26,6.23,40.44,3.07,83.76,.41,117.09-22.69,46.23-32.05,61.4-94.5,103.12-132.24,34.78-31.47,87.29-41.84,131.43-25.97"/>
              <path class="cls-12" d="M394.64,732.04c-7.74-28.24-13.38-59.02-2.57-86.23,14.17-35.65,53.5-55.62,91.6-60.19,38.09-4.58,76.45,2.99,114.71,5.9,38.26,2.91,79.23,.39,110.77-21.47,43.73-30.32,58.09-89.39,97.55-125.09,32.9-29.77,82.57-39.58,124.33-24.57"/>
              <path class="cls-12" d="M425.27,732.04c-7.3-26.63-12.62-55.65-2.42-81.31,13.37-33.62,50.45-52.44,86.37-56.76,35.92-4.31,72.09,2.82,108.16,5.56,36.07,2.74,74.71,.37,104.44-20.24,41.24-28.58,54.77-84.29,91.98-117.95,31.03-28.07,77.86-37.32,117.23-23.16"/>
              <path class="cls-12" d="M455.9,732.04c-6.85-25.02-11.86-52.28-2.27-76.38,12.56-31.58,47.39-49.27,81.14-53.32,33.74-4.05,67.72,2.65,101.61,5.22,33.89,2.58,70.18,.35,98.12-19.02,38.74-26.85,51.45-79.18,86.41-110.8,29.15-26.37,73.14-35.06,110.13-21.76"/>
              <path class="cls-12" d="M486.53,732.04c-6.41-23.4-11.09-48.91-2.13-71.46,11.75-29.55,44.34-46.09,75.91-49.88,31.57-3.79,63.35,2.48,95.06,4.89,31.7,2.41,65.66,.32,91.79-17.79,36.24-25.12,48.14-74.08,80.84-103.66,27.27-24.67,68.43-32.8,103.03-20.36"/>
            </g>
            <g>
              <path class="cls-12" d="M-8.84,199.06c-5.97,20.8,4.66,43.28,20.08,58.46,15.42,15.18,35.16,25.01,53.29,36.8,18.14,11.8,35.67,26.85,42.53,47.37,12.21,36.51-12.72,73.67-24.6,110.28-17.98,55.4-3.97,119.99,35.36,162.95"/>
              <path class="cls-12" d="M-22.95,203.36c-5.97,20.8,4.66,43.28,20.08,58.46,15.42,15.18,35.16,25.01,53.29,36.8,18.14,11.8,35.67,26.85,42.53,47.37,12.21,36.51-12.72,73.67-24.6,110.28-17.98,55.4-3.97,119.99,35.36,162.95"/>
              <path class="cls-12" d="M-37.06,207.65c-5.97,20.8,4.66,43.28,20.08,58.46,15.42,15.18,35.16,25.01,53.29,36.8,18.14,11.8,35.67,26.85,42.53,47.37,12.21,36.51-12.72,73.67-24.6,110.28-17.98,55.4-3.97,119.99,35.36,162.95"/>
              <path class="cls-12" d="M-51.17,211.94c-5.97,20.8,4.66,43.28,20.08,58.46,15.42,15.18,35.16,25.01,53.29,36.8,18.14,11.8,35.67,26.85,42.53,47.37,12.21,36.51-12.72,73.67-24.6,110.28-17.98,55.4-3.97,119.99,35.36,162.95"/>
            </g>
            <g>
              <path class="cls-12" d="M684.97-281.27c3.02,21.42,21.89,37.62,42.15,45.2,20.27,7.58,42.29,8.51,63.66,11.9,21.37,3.39,43.52,9.99,58.14,25.93,26.02,28.37,18.4,72.46,22.46,110.74,6.15,57.92,45.26,111.19,98.67,134.41"/>
              <path class="cls-12" d="M673.83-271.6c3.02,21.42,21.89,37.62,42.15,45.2,20.27,7.58,42.29,8.51,63.66,11.9,21.37,3.39,43.52,9.99,58.14,25.93,26.02,28.37,18.4,72.46,22.46,110.74,6.15,57.92,45.26,111.19,98.67,134.41"/>
              <path class="cls-12" d="M662.69-261.93c3.02,21.42,21.89,37.62,42.15,45.2,20.27,7.58,42.29,8.51,63.66,11.9,21.37,3.39,43.52,9.99,58.14,25.93,26.02,28.37,18.4,72.46,22.46,110.74,6.15,57.92,45.26,111.19,98.67,134.41"/>
              <path class="cls-12" d="M651.55-252.26c3.02,21.42,21.89,37.62,42.15,45.2,20.27,7.58,42.29,8.51,63.66,11.9,21.37,3.39,43.52,9.99,58.14,25.93,26.02,28.37,18.4,72.46,22.46,110.74,6.15,57.92,45.26,111.19,98.67,134.41"/>
            </g>
          </g>
        </g>
      </g>
    </g>
  </g>
</svg>