<?xml version="1.0" encoding="UTF-8"?>
<svg xmlns="http://www.w3.org/2000/svg" viewBox="0 0 176.33 429.22">
  <defs>
    <style>
      .cls-1 {
        isolation: isolate;
      }

      .cls-2 {
        fill: #ccfdff;
        mix-blend-mode: overlay;
      }

      .cls-3 {
        fill: none;
        stroke: #d8d8d8;
        stroke-miterlimit: 10;
      }
    </style>
  </defs>
  <g class="cls-1">
    <g id="Layer_2" data-name="Layer 2">
      <g id="OBJECTS">
        <g>
          <path class="cls-2" d="M176.33,234.35c0,3.84-3.12,6.96-6.96,6.96s-6.96-3.12-6.96-6.96,3.12-6.96,6.96-6.96,6.96,3.12,6.96,6.96Z"/>
          <g>
            <path class="cls-3" d="M44.52,.14c-5.97,20.8,4.66,43.28,20.08,58.46,15.42,15.18,35.16,25.01,53.29,36.8,18.14,11.8,35.67,26.85,42.53,47.37,12.21,36.51-12.72,73.67-24.6,110.28-17.98,55.4-3.97,119.99,35.36,162.95"/>
            <path class="cls-3" d="M30.41,4.43c-5.97,20.8,4.66,43.28,20.08,58.46,15.42,15.18,35.16,25.01,53.29,36.8,18.14,11.8,35.67,26.85,42.53,47.37,12.21,36.51-12.72,73.67-24.6,110.28-17.98,55.4-3.97,119.99,35.36,162.95"/>
            <path class="cls-3" d="M16.3,8.72c-5.97,20.8,4.66,43.28,20.08,58.46,15.42,15.18,35.16,25.01,53.29,36.8,18.14,11.8,35.67,26.85,42.53,47.37,12.21,36.51-12.72,73.67-24.6,110.28-17.98,55.4-3.97,119.99,35.36,162.95"/>
            <path class="cls-3" d="M2.19,13.02c-5.97,20.8,4.66,43.28,20.08,58.46,15.42,15.18,35.16,25.01,53.29,36.8,18.14,11.8,35.67,26.85,42.53,47.37,12.21,36.51-12.72,73.67-24.6,110.28-17.98,55.4-3.97,119.99,35.36,162.95"/>
          </g>
        </g>
      </g>
    </g>
  </g>
</svg>